<?xml version="1.0" standalone="no"?>
<!DOCTYPE svg PUBLIC "-//W3C//DTD SVG 20010904//EN"
 "http://www.w3.org/TR/2001/REC-SVG-20010904/DTD/svg10.dtd">
<svg version="1.0" xmlns="http://www.w3.org/2000/svg"
 width="288.000000pt" height="288.000000pt" viewBox="0 0 288.000000 288.000000"
 preserveAspectRatio="xMidYMid meet">
<metadata>
Created by potrace 1.14, written by Peter Selinger 2001-2017
</metadata>
<g transform="translate(0.000000,288.000000) scale(0.100000,-0.100000)"
fill="#000000" stroke="none">
<path d="M1091 2856 c-11 -4 -24 -20 -30 -35 -13 -34 -13 -208 0 -229 10 -15
48 -17 417 -15 224 2 412 5 418 7 13 5 13 218 0 248 -4 10 -18 20 -29 24 -32
11 -752 11 -776 0z"/>
<path d="M800 2470 c-7 -10 -17 -17 -22 -14 -4 3 -8 -5 -9 -18 0 -13 -3 -39
-5 -58 -6 -39 -6 -44 -1 -80 1 -14 -2 -28 -8 -32 -6 -5 -5 -8 3 -8 9 0 10 -5
3 -19 -6 -10 -8 -21 -5 -24 9 -9 11 -81 3 -103 -4 -12 -5 -25 -1 -29 7 -7 8
-11 11 -38 2 -21 62 -44 109 -42 24 1 42 -3 42 -9 0 -8 2 -8 8 0 8 12 81 13
101 0 10 -6 12 -6 7 3 -10 15 25 11 36 -4 5 -7 8 -6 8 1 0 13 168 13 189 0 10
-6 12 -5 7 2 -4 7 -2 12 3 12 6 0 11 -6 11 -12 0 -8 3 -9 8 -3 10 14 72 17 87
5 7 -6 16 -7 18 -2 7 10 87 9 105 -1 6 -5 18 -5 25 0 17 11 57 12 63 1 3 -4
11 -5 17 -1 19 12 101 11 109 -1 6 -8 8 -8 8 0 0 12 78 13 98 1 6 -5 18 -5 25
0 20 13 187 12 181 -1 -3 -6 1 -3 9 6 8 10 16 15 19 13 3 -3 11 2 19 11 11 13
14 62 15 216 1 113 -3 198 -8 198 -5 0 -7 4 -4 9 7 11 -42 35 -76 36 -16 1
-28 -4 -28 -9 0 -8 -2 -8 -8 0 -9 13 -1132 14 -1132 1 0 -5 -6 -5 -13 1 -10 8
-17 6 -27 -8z"/>
<path d="M1317 1913 c-4 -6 -16 -9 -27 -6 -40 11 -47 -10 -46 -135 1 -64 -2
-123 -7 -129 -5 -7 -6 -13 -1 -13 11 0 11 -210 0 -228 -4 -6 -4 -12 1 -12 10
0 10 -211 -1 -228 -4 -6 -3 -12 1 -12 5 0 8 -39 7 -86 0 -53 4 -90 11 -98 13
-13 317 -14 348 -1 10 4 16 14 13 21 -3 8 -1 14 5 14 6 0 7 5 4 11 -10 14 -12
109 -3 109 4 0 5 7 1 17 -5 14 -7 65 -4 91 3 20 0 630 -4 647 -2 11 -4 23 -4
26 -1 4 -11 5 -23 5 -13 -1 -31 1 -40 6 -10 5 -18 3 -21 -5 -3 -9 -7 -9 -20 2
-10 7 -17 9 -17 4 0 -12 -120 -10 -139 1 -10 6 -12 5 -7 -2 4 -7 3 -12 -3 -12
-5 0 -11 5 -13 12 -3 9 -6 9 -11 1z"/>
<path d="M880 860 c-7 -4 -22 -7 -32 -5 -10 2 -18 0 -18 -5 0 -5 -7 -7 -15 -4
-8 4 -15 1 -15 -6 0 -6 -4 -9 -9 -6 -20 13 -27 -50 -26 -222 1 -235 -5 -226
163 -228 66 0 123 -4 129 -7 6 -4 13 -4 17 0 11 12 57 12 50 1 -5 -7 -2 -8 7
-2 20 12 229 12 229 -1 0 -6 3 -6 8 1 9 12 221 12 241 0 8 -6 12 -5 8 0 -3 6
43 9 114 9 65 0 119 -4 119 -9 0 -4 7 -3 15 4 11 9 18 10 28 1 8 -6 17 -8 20
-5 3 4 38 8 78 9 83 3 101 15 103 72 1 21 5 43 9 50 4 6 4 14 0 16 -10 6 -9
200 1 216 4 6 4 11 -1 11 -4 0 -9 16 -10 36 -3 51 -28 69 -99 69 -33 0 -62 5
-66 10 -5 6 -8 5 -8 -2 0 -9 -7 -10 -23 -4 -13 5 -30 6 -37 1 -7 -5 -24 -4
-37 1 -13 5 -22 5 -19 1 2 -4 -13 -8 -35 -7 -21 0 -39 4 -39 9 0 5 -6 4 -12
-1 -10 -7 -556 -9 -603 -2 -5 1 -18 -2 -27 -6 -11 -4 -18 -3 -18 3 0 7 -10 8
-30 2 -19 -5 -30 -5 -30 1 0 6 -8 5 -20 -1 -12 -6 -20 -7 -20 -1 0 10 -25 9
-36 -2 -4 -3 -14 -2 -23 3 -10 5 -23 5 -31 0z"/>
<path d="M1870 294 c0 -5 -183 -9 -410 -8 l-410 1 -1 -56 c-2 -78 0 -162 4
-185 8 -43 19 -44 426 -45 473 -1 432 -16 435 162 0 54 -2 105 -6 115 -4 9 -7
13 -7 8 -1 -5 -8 -3 -16 4 -8 7 -15 9 -15 4z"/>
</g>
</svg>
